<svg version="1.1" id="Layer_1" xmlns="http://www.w3.org/2000/svg" xmlns:xlink="http://www.w3.org/1999/xlink" x="0px" y="0px"
	 width="100%" viewBox="0 0 926 244" enable-background="new 0 0 926 244" xml:space="preserve">
<path fill="#000000" opacity="1.000000" stroke="none" 
	d="
M927.000000,86.000000 
	C927.000000,138.976273 927.000000,191.952530 927.000000,245.000000 
	C661.642578,245.000000 396.285187,245.000000 130.290222,244.639053 
	C130.285904,235.813110 130.177948,227.206299 131.762756,218.923370 
	C133.319031,210.789597 136.595276,202.984940 139.413925,194.819687 
	C144.674301,184.023636 149.637482,173.443741 154.283844,163.539169 
	C166.916183,167.944885 178.330429,172.479797 190.071594,175.888672 
	C206.986313,180.799591 224.548157,182.198822 242.006607,184.010590 
	C245.358826,184.358505 246.796539,182.886414 247.614731,179.944382 
	C248.420975,177.045425 248.072083,175.071930 245.089600,173.410095 
	C241.390625,171.349060 238.044846,168.640213 234.605423,166.130447 
	C229.057877,162.082352 223.558487,157.968277 217.892853,153.580048 
	C216.983765,152.474335 216.258469,151.630249 215.451645,150.873062 
	C205.881058,141.891159 196.298294,132.922211 186.718735,123.949852 
	C186.291794,123.081512 185.864853,122.213165 185.437912,121.344818 
	C189.903244,117.891708 194.368576,114.438599 199.009995,110.683243 
	C200.113846,109.719284 201.086044,109.111412 201.962708,108.387802 
	C215.660263,97.081772 229.218689,85.602127 243.092697,74.517349 
	C249.068848,69.742676 249.523056,69.214867 245.339615,62.344757 
	C242.481613,62.565685 239.719955,62.709080 236.974716,63.004768 
	C229.314484,63.829838 221.554108,64.187584 214.029831,65.704720 
	C202.547394,68.019951 191.129349,70.805969 179.878082,74.062744 
	C172.419159,76.221786 165.299484,79.552826 157.728882,82.436340 
	C156.635284,82.637283 155.840744,82.761108 155.005615,82.527771 
	C150.345230,73.437340 145.725449,64.704056 141.043427,55.584366 
	C138.953491,48.697323 137.194717,42.097374 134.838821,35.717941 
	C130.681564,24.460695 130.354721,12.745765 130.000000,1.000000 
	C395.666656,1.000000 661.333313,1.000000 927.000000,1.000000 
	C927.000000,25.095781 927.000000,49.084007 926.627075,73.838272 
	C925.627502,71.842346 925.000916,69.080376 924.349976,66.211365 
	C905.406738,66.211365 886.310974,66.211365 866.961609,66.211365 
	C866.239319,72.863297 865.537109,79.330093 864.834961,85.796890 
	C865.245239,85.943710 865.655579,86.090530 866.065918,86.237358 
	C870.930237,78.047173 876.219482,70.389191 887.000000,68.951836 
	C887.000000,80.504440 887.189270,91.819489 886.931641,103.124359 
	C886.767090,110.348351 885.941650,117.557274 885.419739,124.673264 
	C892.114746,124.673264 899.978394,124.673264 906.772217,124.673264 
	C902.970276,106.118507 906.108948,87.567093 904.799561,68.911606 
	C916.054871,72.432175 916.088501,72.551384 922.321960,81.651062 
	C923.495850,83.364746 925.421387,84.563576 927.000000,86.000000 
M601.055908,123.459259 
	C605.611084,124.185303 610.166199,124.911354 614.411682,125.588051 
	C617.100464,117.224815 619.284607,109.830124 621.854370,102.571976 
	C626.250061,90.156471 627.712769,76.421684 639.019165,66.250168 
	C632.919434,66.250168 628.065002,66.250168 622.138306,66.250168 
	C627.247070,72.134521 625.982849,78.047020 623.976624,83.989418 
	C621.206055,92.195312 618.430298,100.399467 615.548340,108.925064 
	C614.015808,104.528481 612.314819,100.681290 611.343506,96.657974 
	C608.952087,86.752464 601.797302,77.348854 607.941284,66.242706 
	C598.955383,66.242706 590.087769,66.242706 581.119751,66.242706 
	C583.157349,70.998322 584.838257,75.643364 587.091370,79.991936 
	C589.729797,85.084229 588.971313,89.856583 587.080811,94.886391 
	C585.397339,99.365318 584.140869,104.004715 582.522400,109.121887 
	C579.529297,100.075691 576.864929,91.675873 573.959229,83.360367 
	C571.925964,77.541328 570.727966,71.890694 575.487244,66.268158 
	C565.580627,66.268158 556.395386,66.268158 546.749573,66.268158 
	C548.328064,68.789154 550.108826,70.769844 550.932983,73.090309 
	C556.076843,87.573479 561.071655,102.110779 565.983093,116.674911 
	C568.849060,125.173309 568.737427,125.123894 577.592651,125.052490 
	C580.275452,125.030861 581.468445,124.371658 582.330811,121.500008 
	C585.072937,112.369080 588.371216,103.405151 591.674438,93.732735 
	C594.905823,103.734161 597.954102,113.168724 601.055908,123.459259 
M319.923309,124.999947 
	C326.876068,124.999947 333.828827,124.999947 340.963318,124.999947 
	C336.568604,115.611809 336.589691,75.322090 340.875916,66.206009 
	C334.342682,66.206009 327.901459,66.206009 321.365051,66.206009 
	C316.146576,78.042320 310.906464,89.927650 305.453552,102.295700 
	C304.519012,100.764381 303.816895,99.866943 303.377899,98.855324 
	C299.229584,89.295998 295.215332,79.676880 290.924896,70.182327 
	C290.178711,68.531090 288.392883,66.282379 286.964752,66.189339 
	C280.401794,65.761757 273.795380,66.001045 267.832520,66.001045 
	C274.283142,85.886658 274.007141,105.280769 268.124115,124.841141 
	C272.015533,124.841141 276.749786,124.841141 281.783508,124.841141 
	C271.628326,110.914871 277.883636,95.295341 276.173981,80.546684 
	C276.836456,80.842171 277.028625,81.216400 277.198975,81.600296 
	C283.117065,94.938217 289.004303,108.290016 294.995514,121.594994 
	C295.573029,122.877502 296.794373,123.870079 297.716827,124.997261 
	C298.823151,123.893692 300.326294,122.981148 300.965668,121.652832 
	C303.467712,116.454941 305.645905,111.102516 308.039032,105.850616 
	C311.777924,97.645393 315.593689,89.475182 320.000000,79.941978 
	C320.000000,88.497292 320.154022,95.478226 319.957214,102.449257 
	C319.756042,109.574890 321.478973,116.991516 317.255676,123.642990 
	C317.220215,123.698860 318.405579,124.529907 319.923309,124.999947 
M462.000000,95.509903 
	C461.238434,105.221573 464.195984,115.288231 458.776428,124.728729 
	C467.088776,124.728729 474.951691,124.728729 482.003082,124.728729 
	C478.820679,105.069717 478.983398,85.677315 481.867401,66.000000 
	C477.766907,66.000000 472.747864,66.373909 467.815094,65.882256 
	C463.834015,65.485466 462.364716,67.566063 461.105804,70.542114 
	C456.676270,81.013657 452.228973,91.477676 447.590607,102.410797 
	C446.574402,100.755302 445.658691,99.603477 445.099823,98.298798 
	C441.001434,88.730316 437.046631,79.099419 432.847229,69.576080 
	C432.218811,68.150986 430.597321,66.228287 429.353546,66.165955 
	C422.637878,65.829330 415.896454,66.006500 409.876038,66.006500 
	C416.257294,85.980576 416.091370,105.370918 410.056305,124.810730 
	C414.047333,124.810730 418.777893,124.810730 423.756958,124.810730 
	C413.655487,110.845459 419.881470,95.276077 418.138580,80.594238 
	C418.813873,80.917442 419.073334,81.275681 419.248718,81.671188 
	C425.161926,95.007851 431.036652,108.361778 437.022827,121.665550 
	C437.593994,122.934875 438.854309,123.894096 439.794678,124.997246 
	C440.888977,123.872208 442.368622,122.931206 443.009399,121.589569 
	C445.494537,116.386200 447.649750,111.026611 450.044891,105.778618 
	C453.783417,97.587112 457.617157,89.439095 462.000000,80.003723 
	C462.000000,85.853523 462.000000,90.184715 462.000000,95.509903 
M816.000000,101.497375 
	C815.624390,109.258141 817.572998,117.298889 812.604248,124.712479 
	C829.095581,124.712479 844.970520,124.712479 860.657715,124.712479 
	C861.376099,118.312782 862.059753,112.223312 862.818054,105.468384 
	C858.576294,110.430847 855.657288,115.837059 851.126404,118.593018 
	C846.486511,121.415192 840.267883,121.641777 834.208862,123.135498 
	C834.208862,113.548508 834.208862,105.454956 834.208862,97.161400 
	C842.445129,96.869614 848.172668,100.338684 851.541138,107.776787 
	C851.541138,99.543152 851.541138,91.309517 851.541138,83.075882 
	C847.939880,90.443886 842.899475,94.805504 834.341431,93.869987 
	C834.341431,85.476189 834.341431,77.269730 834.341431,67.978889 
	C839.988831,69.634682 845.698547,70.109253 849.901123,72.874542 
	C854.198730,75.702438 857.018372,80.776558 861.385132,85.929611 
	C860.381958,78.561638 859.542603,72.396568 858.700317,66.210236 
	C843.382751,66.210236 828.300110,66.210236 814.396484,66.210236 
	C814.939270,72.572098 815.638123,78.780540 815.947632,85.008331 
	C816.203674,90.159790 816.000000,95.334091 816.000000,101.497375 
M691.961426,107.590782 
	C686.470764,93.795158 680.980103,79.999535 675.408264,66.000000 
	C673.000061,66.000000 670.442627,66.374527 668.043579,65.917480 
	C663.810486,65.111038 662.351440,67.647095 661.026123,70.782524 
	C653.406860,88.808937 649.065125,108.292473 636.847412,124.816689 
	C637.740112,124.895027 638.322510,124.988754 638.905212,124.990463 
	C643.192566,125.003059 647.479919,124.997269 652.250916,124.997269 
	C651.295166,122.781754 649.931335,121.047752 649.923645,119.307800 
	C649.907227,115.590157 650.182129,111.742599 651.264771,108.234337 
	C651.555115,107.293610 655.173523,107.150162 657.283508,107.050896 
	C661.103027,106.871216 664.955261,107.228737 668.759155,106.926170 
	C671.692200,106.692856 673.394287,108.097351 673.701599,110.503265 
	C674.288818,115.101845 674.295227,119.774590 674.561218,124.763397 
	C682.269287,124.763397 691.354004,124.763397 700.312622,124.763397 
	C697.613770,119.422073 694.824768,113.902199 691.961426,107.590782 
M403.050232,70.423912 
	C404.132477,69.195366 405.214752,67.966827 406.598816,66.395645 
	C400.770081,66.395645 395.921265,66.395645 391.417145,66.395645 
	C391.693054,69.666779 392.582520,72.702164 392.022034,75.440804 
	C391.297607,78.980469 389.434906,82.291367 388.025482,85.685463 
	C386.617859,89.075119 385.164764,92.445869 383.731598,95.824913 
	C379.757721,86.065872 370.418274,78.237595 374.839661,66.324203 
	C365.327698,66.324203 355.860718,66.324203 347.705627,66.324203 
	C352.978790,75.849159 358.551361,85.602997 363.818695,95.518997 
	C368.875793,105.039246 368.242065,114.793533 364.228943,124.758690 
	C372.074066,124.758690 379.935059,124.758690 386.464294,124.758690 
	C385.988220,116.706947 383.264984,108.072548 385.577759,101.111290 
	C389.166321,90.309975 394.174194,79.474403 403.050232,70.423912 
M781.000000,93.500252 
	C781.655212,84.447678 778.966309,75.051414 784.299316,66.252380 
	C775.918518,66.252380 768.055847,66.252380 761.085083,66.252380 
	C764.101135,85.887650 764.006287,105.273254 761.085938,124.999161 
	C774.689941,124.999161 789.148621,125.047028 803.605408,124.906258 
	C804.734863,124.895256 806.712769,123.688248 806.835144,122.828896 
	C807.669800,116.971024 808.112671,111.057350 808.739136,104.570259 
	C804.803955,109.370140 801.764282,114.303589 797.562988,117.867973 
	C793.086792,121.665665 787.222839,122.761314 781.000000,121.674660 
	C781.000000,112.446838 781.000000,103.473495 781.000000,93.500252 
M734.499329,125.000000 
	C740.626953,125.000000 746.754639,125.000000 753.189270,125.000000 
	C753.929016,118.244080 754.624817,111.889374 755.320618,105.534660 
	C754.928955,105.274818 754.537292,105.014969 754.145630,104.755127 
	C748.967773,116.830078 740.697571,123.597702 726.737549,121.621735 
	C728.321777,103.027710 724.160400,84.320168 730.542664,66.150696 
	C722.651428,66.150696 714.565857,66.150696 707.280396,66.150696 
	C711.364685,85.776398 711.645569,105.343445 707.196716,125.000000 
	C715.530334,125.000000 724.514954,125.000000 734.499329,125.000000 
M515.017273,74.070976 
	C516.002563,71.562927 516.987854,69.054871 518.092957,66.241936 
	C509.937286,66.241936 502.076233,66.241936 495.280426,66.241936 
	C497.981232,85.812737 497.983521,105.186745 495.278442,124.758240 
	C502.075867,124.758240 509.936737,124.758240 516.876404,124.758240 
	C516.238892,119.043922 515.226318,113.501984 515.083374,107.937706 
	C514.801208,96.957504 515.000732,85.964928 515.017273,74.070976 
M639.698120,165.000214 
	C638.819275,165.246872 637.940430,165.493546 637.061584,165.740189 
	C637.611145,166.497284 638.153137,167.260025 638.712769,168.009583 
	C639.127258,168.564651 639.914734,169.090302 639.934387,169.650177 
	C640.050903,172.971207 639.991882,176.298401 639.991882,179.623520 
	C637.143616,176.417709 634.931213,173.247559 633.379761,169.781494 
	C630.916321,164.277939 626.804443,164.342270 623.217590,165.157745 
	C623.868469,169.163162 624.450195,172.642197 624.985718,176.128342 
	C625.085510,176.778046 625.167908,177.511154 624.971375,178.111908 
	C624.051453,180.924057 627.545898,185.258575 622.108398,186.515701 
	C622.552124,187.341675 622.948486,188.848145 623.447144,188.882812 
	C626.594421,189.101471 629.764343,188.993652 632.926819,188.993652 
	C633.328308,188.627396 633.729797,188.261124 634.131287,187.894867 
	C626.214478,185.069412 629.738464,179.271835 628.820496,173.229614 
	C631.990479,178.017868 634.690857,181.552902 636.783264,185.417099 
	C638.704102,188.964386 641.184937,189.837158 644.277893,188.782654 
	C644.672424,180.729431 641.427856,172.672501 647.636597,165.000000 
	C644.571899,165.000000 642.593018,165.000000 639.698120,165.000214 
M556.712769,188.148712 
	C558.694214,188.507767 560.675659,188.866821 562.290527,189.159454 
	C562.644348,180.736115 559.444763,172.674713 565.462646,165.203293 
	C561.436951,165.203293 558.325073,165.203293 554.370789,165.203293 
	C559.364014,169.648834 558.086243,174.646881 557.594238,180.585739 
	C554.194336,174.862076 551.335693,170.049576 548.463745,165.214600 
	C545.771179,165.214600 542.987183,165.214600 541.115967,165.214600 
	C541.761963,169.171722 543.006958,172.995987 542.812378,176.745560 
	C542.640564,180.058472 545.690857,184.724197 540.061035,186.633347 
	C540.401794,187.412170 540.706848,188.846100 541.088989,188.866974 
	C544.369751,189.046143 547.664368,188.969833 550.954895,188.969833 
	C544.631042,184.831802 547.640320,179.257614 547.693237,174.348816 
	C550.500671,178.772079 553.308105,183.195343 556.712769,188.148712 
M681.010071,166.312439 
	C686.210388,173.676376 684.952759,181.113052 681.026123,188.522141 
	C684.462952,188.522141 687.660706,188.522141 690.142456,188.522141 
	C689.234802,184.337631 688.295654,180.008377 687.105896,174.523468 
	C693.893311,179.107315 693.546387,189.015564 703.000000,189.154175 
	C703.000000,186.583420 702.764648,184.567169 703.044800,182.625320 
	C703.839111,177.120224 700.541748,170.868622 705.952148,166.170395 
	C706.039612,166.094437 705.784668,165.624176 705.634338,165.172058 
	C702.274231,165.172058 698.876831,165.172058 696.717834,165.172058 
	C697.678589,170.144592 698.657410,175.210266 699.636169,180.275940 
	C699.191406,180.349838 698.746582,180.423737 698.301819,180.497635 
	C696.031494,176.999664 693.070740,173.758377 691.652466,169.943634 
	C689.519836,164.207184 685.672791,164.438339 681.010071,166.312439 
M293.933441,188.589874 
	C295.944366,188.589874 297.955292,188.589874 299.671021,188.589874 
	C298.499695,185.061661 297.434326,181.852676 296.236633,178.245056 
	C300.243103,178.245056 302.995514,178.245056 306.560089,178.245056 
	C305.771179,181.994553 305.066040,185.345993 304.397675,188.522644 
	C307.576508,188.522644 310.763672,188.522644 314.041656,188.522644 
	C309.407593,180.758118 309.494110,173.040176 313.953033,165.425644 
	C310.355103,165.425644 307.187225,165.425644 304.054565,165.425644 
	C304.938019,168.309814 305.711334,170.834457 306.621643,173.806244 
	C302.887909,173.806244 300.117371,173.806244 296.316528,173.806244 
	C297.712708,170.688446 298.886200,168.067978 300.120148,165.312378 
	C296.530121,165.312378 293.311096,165.312378 289.800476,165.312378 
	C290.122192,166.430344 290.130554,167.352509 290.587433,167.901199 
	C293.401245,171.280334 294.356659,182.718430 291.527222,185.674698 
	C288.317657,189.028152 290.198212,189.101837 293.933441,188.589874 
M468.365143,180.150314 
	C469.569611,181.254898 471.189453,182.141449 471.904175,183.503098 
	C474.519684,188.485977 478.494781,189.873886 484.661377,188.496704 
	C481.037109,185.270065 477.789185,182.378448 474.587738,179.528244 
	C475.229553,178.611237 475.346954,178.275757 475.581512,178.133545 
	C479.211029,175.932739 480.109406,172.110840 478.648407,168.970322 
	C477.722443,166.980011 474.143677,165.656754 471.539093,165.156433 
	C468.199310,164.514877 464.643036,165.000565 460.574188,165.000565 
	C465.556580,173.107666 465.462982,180.885956 460.957245,188.522537 
	C464.605713,188.522537 467.782318,188.522537 470.945282,188.522537 
	C469.940308,185.889908 468.982819,183.381638 468.365143,180.150314 
M447.311127,188.164978 
	C448.883759,186.129822 451.308899,184.300064 451.858612,182.018448 
	C453.162842,176.605225 453.578033,170.977798 454.378845,165.248550 
	C451.672241,165.248550 448.425446,165.248550 444.049316,165.248550 
	C445.760345,167.214630 447.664154,168.399277 447.842438,169.803085 
	C448.299622,173.402832 448.518158,177.214432 447.760284,180.708878 
	C447.392029,182.406815 444.768494,184.322296 442.882111,184.692322 
	C441.908600,184.883286 439.170837,181.879745 439.209290,180.369980 
	C439.337555,175.331909 436.786987,169.647720 442.800751,165.236679 
	C438.228912,165.236679 434.663361,165.236679 432.059143,165.236679 
	C432.722626,169.209564 433.393402,173.029144 433.977661,176.861938 
	C434.126312,177.836975 433.994781,178.853973 434.000824,179.851639 
	C434.045258,187.148544 437.324982,189.441406 447.311127,188.164978 
M395.868652,187.659241 
	C396.908661,186.038879 398.598083,184.519958 398.869904,182.779602 
	C399.776794,176.973190 396.899292,170.544754 402.915375,165.236115 
	C398.611664,165.236115 395.356293,165.236115 391.126862,165.236115 
	C392.772949,167.206009 394.644287,168.432358 394.845795,169.889648 
	C395.319550,173.315094 395.488403,176.953003 394.794800,180.300690 
	C394.425354,182.083817 392.222351,183.858551 390.411743,184.801498 
	C389.608917,185.219589 386.749023,183.801132 386.514893,182.814728 
	C385.706482,179.409103 385.229492,175.801498 385.440918,172.320267 
	C385.582916,169.982437 387.101654,167.728241 388.035278,165.358353 
	C384.444855,165.358353 381.258118,165.358353 379.160309,165.358353 
	C379.803558,169.644974 380.439087,173.626282 380.976471,177.620804 
	C381.130249,178.763840 381.080566,179.951721 380.985321,181.107590 
	C380.663025,185.018448 382.399811,187.520721 386.254822,187.972855 
	C389.165161,188.314178 392.152527,187.998734 395.868652,187.659241 
M487.770233,186.041794 
	C485.557648,190.867401 489.702667,188.797028 491.148987,188.861038 
	C493.530304,188.966415 496.050049,187.813858 498.319183,188.232864 
	C505.172760,189.498383 505.690704,189.152679 504.513184,182.519653 
	C501.643005,183.526535 498.652039,184.575790 495.199615,185.786926 
	C495.199615,182.451263 495.199615,180.352570 495.199615,177.530884 
	C497.615631,178.510544 499.541901,179.291611 501.729340,180.178574 
	C501.729340,177.549149 501.729340,175.328400 501.729340,172.671082 
	C499.342041,173.517853 497.341919,174.227295 495.217224,174.980942 
	C495.217224,172.808548 495.217224,171.044281 495.217224,168.484985 
	C498.306152,169.238113 501.009766,169.897293 503.706390,170.554779 
	C503.706390,168.937683 503.706390,167.064117 503.706390,165.481445 
	C497.956238,165.481445 492.507050,165.481445 488.104309,165.481445 
	C488.781006,168.670822 489.863953,171.540192 489.883789,174.416885 
	C489.910339,178.273041 489.114166,182.134857 487.770233,186.041794 
M668.036194,172.373520 
	C667.156677,169.884064 666.277222,167.394623 664.911011,163.527481 
	C663.111633,165.716324 661.803711,166.999222 660.859985,168.509644 
	C657.134277,174.472336 657.468750,182.578033 651.052002,187.163132 
	C650.843689,187.311981 651.079834,188.082962 651.106262,188.521652 
	C654.444031,188.521652 657.712219,188.521652 659.866943,188.521652 
	C660.172546,185.555634 660.039856,183.069244 660.857483,180.949432 
	C661.144958,180.204208 664.989563,179.855667 665.122437,180.180374 
	C666.188843,182.785904 666.755432,185.595993 667.521729,188.522156 
	C669.587524,188.522156 672.770203,188.522156 675.342285,188.522156 
	C673.099731,183.422775 670.811279,178.219177 668.036194,172.373520 
M334.422546,188.999573 
	C339.419403,188.461334 337.685272,184.930847 337.786133,182.021667 
	C334.628815,183.299286 331.686584,184.489883 328.198792,185.901230 
	C328.198792,182.427567 328.198792,180.325012 328.198792,177.592056 
	C330.694672,178.528412 332.700470,179.280899 334.640472,180.008728 
	C334.471100,177.333282 334.339264,175.250565 334.193451,172.946869 
	C332.282074,173.461731 330.230652,174.014313 327.931641,174.633591 
	C328.040436,172.572006 328.132263,170.831207 328.268341,168.252472 
	C331.440918,169.272079 333.977051,170.087143 336.747192,170.977417 
	C336.747192,169.048431 336.747192,167.168365 336.747192,165.200409 
	C331.077789,165.200409 325.641815,165.200409 318.656830,165.200409 
	C324.278503,168.803589 322.837311,173.458221 322.989136,177.741470 
	C323.053986,179.569839 323.071869,181.406479 322.969238,183.231384 
	C322.918549,184.133469 322.735321,185.136230 322.269623,185.878662 
	C321.722443,186.751022 320.803528,187.390213 320.045807,188.130508 
	C321.343689,188.256821 322.639130,188.424881 323.939941,188.501221 
	C327.137299,188.688812 330.337158,188.834167 334.422546,188.999573 
M747.478027,165.000000 
	C744.363647,165.000000 741.249268,165.000000 737.466309,165.000000 
	C743.018860,173.144791 742.067932,180.902023 737.980042,188.499878 
	C743.914978,188.499878 749.430969,188.499878 754.813538,188.499878 
	C755.022095,186.287674 755.213318,184.259415 755.413513,182.234436 
	C744.611877,184.446045 744.611877,184.446045 745.498230,177.569214 
	C747.658203,178.362747 749.656189,179.096741 751.740906,179.862625 
	C751.740906,177.578186 751.740906,175.337555 751.740906,172.644974 
	C749.360352,173.501587 747.357788,174.222153 745.206787,174.996170 
	C745.206787,172.838425 745.206787,171.079178 745.206787,168.416840 
	C748.615723,169.274124 751.618164,170.029190 754.688171,170.801254 
	C754.688171,168.900803 754.688171,167.039124 754.688171,165.000000 
	C752.399780,165.000000 750.421570,165.000000 747.478027,165.000000 
M591.001465,183.141739 
	C591.001465,181.511688 591.001465,179.881622 591.001465,177.524521 
	C593.655212,178.516144 595.685974,179.274979 597.636597,180.003891 
	C597.470154,177.327805 597.340515,175.243149 597.197449,172.943512 
	C595.277588,173.459671 593.226624,174.011078 590.927917,174.629074 
	C591.037659,172.558838 591.129944,170.818390 591.266785,168.237518 
	C594.439209,169.257706 596.988037,170.077393 599.739014,170.962051 
	C599.739014,169.020416 599.739014,167.139008 599.739014,165.215729 
	C594.032471,165.215729 588.589294,165.215729 581.833435,165.215729 
	C587.301208,168.826019 585.855225,173.509460 585.996155,177.825272 
	C586.023376,178.657547 586.128784,179.516037 585.975281,180.319901 
	C585.554993,182.521622 587.623901,185.850571 583.336548,186.365250 
	C583.618774,187.235168 583.896362,188.858017 584.184021,188.859787 
	C587.434326,188.879715 590.686279,188.651123 594.803162,188.446075 
	C593.291016,186.669189 592.155701,185.335052 591.001465,183.141739 
M370.039703,177.316422 
	C370.186523,175.962479 370.333344,174.608536 370.518311,172.902771 
	C368.335785,173.477844 366.257263,174.025513 364.251526,174.554001 
	C364.251526,172.732330 364.251526,170.979507 364.251526,168.378052 
	C367.366180,169.289032 370.006866,170.061371 372.824799,170.885544 
	C372.824799,168.926224 372.824799,167.169861 372.824799,165.282745 
	C367.157196,165.282745 361.620544,165.282745 357.094116,165.282745 
	C357.749603,169.290039 358.406189,173.107422 358.978180,176.937454 
	C359.123627,177.911407 359.152679,178.954636 358.969696,179.915466 
	C358.525665,182.246887 360.660583,185.673569 356.300262,186.476303 
	C356.112213,186.510925 355.881775,187.778122 356.120605,188.237335 
	C356.338226,188.655746 357.174438,188.976349 357.726532,188.959656 
	C360.800690,188.866760 363.871338,188.658066 366.591553,188.508331 
	C365.528229,185.256592 364.430878,181.900848 363.333557,178.545120 
	C363.791779,178.245392 364.250000,177.945663 364.708221,177.645935 
	C365.822754,178.198608 366.979919,178.680450 368.042206,179.319931 
	C369.802216,180.379440 369.782684,180.418869 370.039703,177.316422 
M725.196777,169.001495 
	C730.998169,171.738510 730.998169,171.738510 731.822083,166.431061 
	C721.342468,163.348679 715.643066,164.936768 712.777405,171.737778 
	C710.386230,177.412689 712.645508,185.258743 717.403625,187.803818 
	C722.313477,190.430008 729.124573,188.948013 732.426331,183.790497 
	C730.176025,184.283264 728.594299,184.652924 727.002747,184.973785 
	C722.282776,185.925400 717.399963,182.898041 717.000610,178.789536 
	C716.312256,171.707932 718.239624,169.143829 725.196777,169.001495 
M271.598450,185.864136 
	C270.741516,186.521881 269.884583,187.179626 269.027649,187.837372 
	C269.616852,188.223694 270.191711,188.915131 270.797699,188.943558 
	C273.435730,189.067322 276.087311,189.084167 278.723785,188.945419 
	C279.491882,188.904984 280.226074,188.220322 280.975830,187.830963 
	C280.444611,187.218109 279.890839,186.623169 279.387329,185.988327 
	C278.574463,184.963486 277.169800,183.947220 277.109558,182.866302 
	C276.853790,178.277512 277.000977,173.666229 277.000977,168.251633 
	C279.995453,169.341858 282.210724,170.148392 284.418915,170.952362 
	C285.350861,165.958389 285.152222,165.168762 282.083374,165.058945 
	C276.466949,164.857925 270.838135,165.001709 264.948273,165.001709 
	C265.059753,167.281479 265.148987,169.107132 265.230652,170.777390 
	C267.647003,169.997833 269.597748,169.368500 271.972900,168.602234 
	C271.972900,174.738266 271.972900,179.885925 271.598450,185.864136 
M420.257446,169.011749 
	C422.019592,169.616135 423.781738,170.220535 425.747498,170.894760 
	C425.747498,168.963959 425.747498,167.107773 425.747498,165.205505 
	C419.410675,165.205505 413.328186,165.205505 407.375000,165.205505 
	C407.375000,167.255966 407.375000,169.084229 407.375000,170.775299 
	C409.611023,170.023529 411.561890,169.367645 414.873260,168.254333 
	C413.864899,176.021149 413.036560,182.401245 412.244446,188.502502 
	C414.902863,188.502502 418.430450,188.502502 422.462769,188.502502 
	C416.899078,182.550476 419.297302,175.696640 420.257446,169.011749 
M527.108826,188.974182 
	C529.347778,188.974182 531.586731,188.974182 534.229187,188.974182 
	C529.477295,180.811783 529.464722,173.112350 533.883179,165.274414 
	C530.242737,165.274414 526.709656,165.274414 522.672302,165.274414 
	C523.980225,167.129898 525.734863,168.499847 525.859497,170.004822 
	C526.241638,174.618927 526.033325,179.285400 525.959900,183.930023 
	C525.949280,184.602539 525.540344,185.363815 525.100525,185.911026 
	C524.520142,186.633102 523.727051,187.184280 523.025452,187.808960 
	C524.101440,188.205368 525.177368,188.601776 527.108826,188.974182 
M607.981018,169.081879 
	C607.987366,172.399200 608.259338,175.744324 607.915710,179.024994 
	C607.642151,181.637024 610.038696,185.453064 605.211914,186.471069 
	C605.588562,187.308685 605.920471,188.845032 606.349060,188.872498 
	C609.548645,189.077499 612.767334,188.983917 616.331909,188.983917 
	C611.455688,180.729691 611.462158,173.047455 615.728821,165.371506 
	C612.092529,165.371506 608.600220,165.371506 605.107971,165.371506 
	C604.996643,165.666809 604.885315,165.962128 604.773987,166.257431 
	C605.756226,166.915726 606.738464,167.574020 607.981018,169.081879 
z"/>
<path fill="#000000" opacity="1.000000" stroke="none" 
	d="
M121.000000,245.000000 
	C81.095848,245.000000 41.191692,245.000000 1.000000,245.000000 
	C1.000000,224.313324 1.000000,203.625320 1.407217,182.356354 
	C9.793101,181.720184 17.828043,182.236618 25.735521,181.458206 
	C34.672211,180.578461 43.595505,178.963455 52.342369,176.896805 
	C65.043953,173.895767 77.792274,170.889832 89.631111,165.031403 
	C91.059174,164.324738 93.707565,164.196091 94.769096,165.057724 
	C96.582588,166.529709 97.818161,168.884842 98.890785,171.068314 
	C103.125610,179.688889 107.202705,188.386948 111.355148,197.259506 
	C111.517143,197.709915 111.726318,197.876999 111.993835,197.980148 
	C111.988167,197.996292 112.022240,197.999603 112.029068,198.390259 
	C112.739311,201.275925 113.264046,203.838379 114.176117,206.254623 
	C118.892334,218.748657 120.849892,231.710953 121.000000,245.000000 
z"/>
<path fill="#000000" opacity="1.000000" stroke="none" 
	d="
M1.000000,64.000000 
	C1.000000,43.050320 1.000000,22.100636 1.000000,1.000000 
	C40.687443,1.000000 80.375061,1.000000 120.523483,1.443172 
	C119.798523,9.635569 119.073578,17.491945 117.303299,25.105255 
	C115.354988,33.484169 112.445564,41.639595 109.638733,50.084953 
	C106.217712,57.161320 103.118027,64.047470 100.005852,70.927971 
	C98.336403,74.618835 96.645493,78.299995 94.742065,82.083603 
	C94.241371,82.378395 94.065552,82.643257 93.625870,82.974884 
	C81.659882,76.419533 68.962936,72.693497 56.156914,69.748390 
	C44.569267,67.083488 32.691185,65.510696 20.862383,64.132645 
	C14.325163,63.371052 7.626104,63.998638 1.000000,64.000000 
z"/>
<path fill="#000000" opacity="1.000000" stroke="none" 
	d="
M1.000000,174.000000 
	C1.000000,140.312439 1.000000,106.624878 1.363964,72.478836 
	C7.061764,75.722473 12.457103,79.339729 17.712944,83.149445 
	C23.511978,87.352898 29.183039,91.732910 35.060791,96.337112 
	C44.466801,105.431816 53.721867,114.225418 62.976967,123.345947 
	C62.306576,124.747139 61.636147,125.821388 60.660751,127.038452 
	C49.894192,136.529373 39.432598,145.877502 28.728966,155.202148 
	C28.167818,155.344513 28.000435,155.607086 27.988483,155.979248 
	C27.992182,155.992081 27.965742,155.988632 27.747604,156.069489 
	C27.217533,156.340759 27.114748,156.610794 27.067825,157.232346 
	C26.267570,157.980179 25.620602,158.456116 24.651016,159.062332 
	C23.245268,159.922150 22.180233,160.680374 21.076038,161.376495 
	C14.388988,165.592194 7.693001,169.793732 1.000000,174.000000 
z"/>
<path fill="#FFFFFF" opacity="1.000000" stroke="none" 
	d="
M927.000000,85.539368 
	C925.421387,84.563576 923.495850,83.364746 922.321960,81.651062 
	C916.088501,72.551384 916.054871,72.432175 904.799561,68.911606 
	C906.108948,87.567093 902.970276,106.118507 906.772217,124.673264 
	C899.978394,124.673264 892.114746,124.673264 885.419739,124.673264 
	C885.941650,117.557274 886.767090,110.348351 886.931641,103.124359 
	C887.189270,91.819489 887.000000,80.504440 887.000000,68.951836 
	C876.219482,70.389191 870.930237,78.047173 866.065918,86.237358 
	C865.655579,86.090530 865.245239,85.943710 864.834961,85.796890 
	C865.537109,79.330093 866.239319,72.863297 866.961609,66.211365 
	C886.310974,66.211365 905.406738,66.211365 924.349976,66.211365 
	C925.000916,69.080376 925.627502,71.842346 926.627075,74.302155 
	C927.000000,77.692909 927.000000,81.385818 927.000000,85.539368 
z"/>
<path fill="#2753A7" opacity="1.000000" stroke="none" 
	d="
M1.000000,174.444168 
	C7.693001,169.793732 14.388988,165.592194 21.076038,161.376495 
	C22.180233,160.680374 23.245268,159.922150 24.653934,159.447937 
	C24.714251,161.249695 24.449030,162.796097 24.116476,164.735123 
	C28.466537,163.393555 32.288391,162.214890 35.959854,161.345139 
	C31.693571,164.891998 27.577675,168.129944 23.179968,171.459503 
	C22.375071,171.834915 21.851986,172.118713 21.328899,172.402496 
	C21.407291,172.609268 21.485685,172.816040 21.564077,173.022812 
	C22.409349,172.722107 23.254622,172.421387 24.529125,172.083435 
	C33.057209,170.816971 41.266911,170.069504 49.227131,168.237839 
	C59.406952,165.895416 69.464989,162.923172 79.404175,159.694885 
	C82.516769,158.683884 85.075661,155.968155 88.203705,154.151733 
	C92.205528,157.668365 95.891647,161.066025 99.577774,164.463669 
	C100.160934,164.027130 100.744102,163.590607 101.327271,163.154068 
	C100.647568,161.362442 100.036667,159.540787 99.271194,157.786575 
	C98.256119,155.460358 97.120300,153.186829 96.344803,150.928192 
	C97.441528,150.755920 98.229820,150.546097 99.022530,150.681152 
	C100.722282,153.032562 102.417610,155.039124 103.972015,157.338837 
	C103.898247,159.464401 103.415047,161.548859 104.120438,163.088913 
	C109.320053,174.440933 114.756882,185.684326 119.792694,197.112595 
	C116.984970,197.508728 114.503609,197.754166 112.022240,197.999603 
	C112.022240,197.999603 111.988167,197.996292 111.933189,197.796173 
	C111.757309,197.357040 111.577339,197.177109 111.338318,197.056259 
	C107.202705,188.386948 103.125610,179.688889 98.890785,171.068314 
	C97.818161,168.884842 96.582588,166.529709 94.769096,165.057724 
	C93.707565,164.196091 91.059174,164.324738 89.631111,165.031403 
	C77.792274,170.889832 65.043953,173.895767 52.342369,176.896805 
	C43.595505,178.963455 34.672211,180.578461 25.735521,181.458206 
	C17.828043,182.236618 9.793101,181.720184 1.407217,181.887695 
	C1.000000,179.629440 1.000000,177.258896 1.000000,174.444168 
z"/>
<path fill="#3A5EB8" opacity="1.000000" stroke="none" 
	d="
M34.909843,96.036011 
	C29.183039,91.732910 23.511978,87.352898 17.712944,83.149445 
	C12.457103,79.339729 7.061764,75.722473 1.363964,72.010178 
	C1.000000,69.629440 1.000000,67.258888 1.000000,64.444168 
	C7.626104,63.998638 14.325163,63.371052 20.862383,64.132645 
	C32.691185,65.510696 44.569267,67.083488 56.156914,69.748390 
	C68.962936,72.693497 81.659882,76.419533 93.663399,83.324799 
	C95.887642,86.553459 98.204094,88.275703 101.969971,87.308655 
	C104.438309,89.360313 106.744568,91.104683 109.003891,93.213989 
	C108.031548,94.238075 107.175613,95.301735 106.166725,95.475044 
	C103.819283,95.878304 101.398140,95.852539 98.671066,95.999222 
	C97.893188,95.945274 97.451103,95.892731 97.000397,95.473373 
	C95.594536,90.475746 91.769859,90.214363 87.529610,90.010574 
	C66.138474,79.986046 43.685410,75.633942 19.758999,72.742760 
	C27.718578,79.257233 34.869781,85.110100 42.137917,91.204834 
	C42.550114,91.643082 42.845375,91.839455 43.356506,92.120193 
	C43.572369,92.204552 43.848679,92.576714 43.475258,92.767685 
	C40.371170,93.984436 37.640507,95.010223 34.909843,96.036011 
z"/>
<path fill="#4463C1" opacity="1.000000" stroke="none" 
	d="
M109.954857,49.892387 
	C112.445564,41.639595 115.354988,33.484169 117.303299,25.105255 
	C119.073578,17.491945 119.798523,9.635569 120.992142,1.443172 
	C123.700012,1.000000 126.400024,1.000000 129.550018,1.000000 
	C130.354721,12.745765 130.681564,24.460695 134.838821,35.717941 
	C137.194717,42.097374 138.953491,48.697323 140.665833,55.629021 
	C137.627426,55.702015 134.904373,55.343937 132.005585,54.645538 
	C129.402405,46.743404 126.974991,39.181587 124.602371,31.790474 
	C122.105827,38.878643 119.612213,45.958523 116.696716,53.027187 
	C113.804138,52.711346 110.493134,54.106918 109.954857,49.892387 
z"/>
<path fill="#204F9F" opacity="1.000000" stroke="none" 
	d="
M112.029068,198.390259 
	C114.503609,197.754166 116.984970,197.508728 120.100174,197.330902 
	C121.962219,201.600876 123.190430,205.803223 124.736565,211.093353 
	C126.833878,205.102905 128.429062,200.546631 130.330002,196.148499 
	C134.160995,200.543076 136.184494,194.757126 139.116730,195.035843 
	C136.595276,202.984940 133.319031,210.789597 131.762756,218.923370 
	C130.177948,227.206299 130.285904,235.813110 129.826340,244.639053 
	C127.299988,245.000000 124.599968,245.000000 121.449982,245.000000 
	C120.849892,231.710953 118.892334,218.748657 114.176117,206.254623 
	C113.264046,203.838379 112.739311,201.275925 112.029068,198.390259 
z"/>
<path fill="#FFFFFF" opacity="1.000000" stroke="none" 
	d="
M601.029175,123.031273 
	C597.954102,113.168724 594.905823,103.734161 591.674438,93.732735 
	C588.371216,103.405151 585.072937,112.369080 582.330811,121.500008 
	C581.468445,124.371658 580.275452,125.030861 577.592651,125.052490 
	C568.737427,125.123894 568.849060,125.173309 565.983093,116.674911 
	C561.071655,102.110779 556.076843,87.573479 550.932983,73.090309 
	C550.108826,70.769844 548.328064,68.789154 546.749573,66.268158 
	C556.395386,66.268158 565.580627,66.268158 575.487244,66.268158 
	C570.727966,71.890694 571.925964,77.541328 573.959229,83.360367 
	C576.864929,91.675873 579.529297,100.075691 582.522400,109.121887 
	C584.140869,104.004715 585.397339,99.365318 587.080811,94.886391 
	C588.971313,89.856583 589.729797,85.084229 587.091370,79.991936 
	C584.838257,75.643364 583.157349,70.998322 581.119751,66.242706 
	C590.087769,66.242706 598.955383,66.242706 607.941284,66.242706 
	C601.797302,77.348854 608.952087,86.752464 611.343506,96.657974 
	C612.314819,100.681290 614.015808,104.528481 615.548340,108.925064 
	C618.430298,100.399467 621.206055,92.195312 623.976624,83.989418 
	C625.982849,78.047020 627.247070,72.134521 622.138306,66.250168 
	C628.065002,66.250168 632.919434,66.250168 639.019165,66.250168 
	C627.712769,76.421684 626.250061,90.156471 621.854370,102.571976 
	C619.284607,109.830124 617.100464,117.224815 614.411682,125.588051 
	C610.166199,124.911354 605.611084,124.185303 601.029175,123.031273 
z"/>
<path fill="#FFFFFF" opacity="1.000000" stroke="none" 
	d="
M319.472107,124.999481 
	C318.405579,124.529907 317.220215,123.698860 317.255676,123.642990 
	C321.478973,116.991516 319.756042,109.574890 319.957214,102.449257 
	C320.154022,95.478226 320.000000,88.497292 320.000000,79.941978 
	C315.593689,89.475182 311.777924,97.645393 308.039032,105.850616 
	C305.645905,111.102516 303.467712,116.454941 300.965668,121.652832 
	C300.326294,122.981148 298.823151,123.893692 297.716827,124.997253 
	C296.794373,123.870079 295.573029,122.877502 294.995514,121.594994 
	C289.004303,108.290016 283.117065,94.938217 277.198975,81.600296 
	C277.028625,81.216400 276.836456,80.842171 276.173981,80.546684 
	C277.883636,95.295341 271.628326,110.914871 281.783508,124.841141 
	C276.749786,124.841141 272.015533,124.841141 268.124115,124.841141 
	C274.007141,105.280769 274.283142,85.886658 267.832520,66.001045 
	C273.795380,66.001045 280.401794,65.761757 286.964752,66.189339 
	C288.392883,66.282379 290.178711,68.531090 290.924896,70.182327 
	C295.215332,79.676880 299.229584,89.295998 303.377899,98.855324 
	C303.816895,99.866943 304.519012,100.764381 305.453552,102.295700 
	C310.906464,89.927650 316.146576,78.042320 321.365051,66.206009 
	C327.901459,66.206009 334.342682,66.206009 340.875916,66.206009 
	C336.589691,75.322090 336.568604,115.611809 340.963318,124.999947 
	C333.828827,124.999947 326.876068,124.999947 319.472107,124.999481 
z"/>
<path fill="#FFFFFF" opacity="1.000000" stroke="none" 
	d="
M462.000000,95.012909 
	C462.000000,90.184715 462.000000,85.853523 462.000000,80.003723 
	C457.617157,89.439095 453.783417,97.587112 450.044891,105.778618 
	C447.649750,111.026611 445.494537,116.386200 443.009399,121.589569 
	C442.368622,122.931206 440.888977,123.872208 439.794678,124.997253 
	C438.854309,123.894096 437.593994,122.934875 437.022827,121.665550 
	C431.036652,108.361778 425.161926,95.007851 419.248718,81.671188 
	C419.073334,81.275681 418.813873,80.917442 418.138580,80.594238 
	C419.881470,95.276077 413.655487,110.845459 423.756958,124.810730 
	C418.777893,124.810730 414.047333,124.810730 410.056305,124.810730 
	C416.091370,105.370918 416.257294,85.980576 409.876038,66.006500 
	C415.896454,66.006500 422.637878,65.829330 429.353546,66.165955 
	C430.597321,66.228287 432.218811,68.150986 432.847229,69.576080 
	C437.046631,79.099419 441.001434,88.730316 445.099823,98.298798 
	C445.658691,99.603477 446.574402,100.755302 447.590607,102.410797 
	C452.228973,91.477676 456.676270,81.013657 461.105804,70.542114 
	C462.364716,67.566063 463.834015,65.485466 467.815094,65.882256 
	C472.747864,66.373909 477.766907,66.000000 481.867401,66.000000 
	C478.983398,85.677315 478.820679,105.069717 482.003082,124.728729 
	C474.951691,124.728729 467.088776,124.728729 458.776428,124.728729 
	C464.195984,115.288231 461.238434,105.221573 462.000000,95.012909 
z"/>
<path fill="#FFFFFF" opacity="1.000000" stroke="none" 
	d="
M816.000000,100.997826 
	C816.000000,95.334091 816.203674,90.159790 815.947632,85.008331 
	C815.638123,78.780540 814.939270,72.572098 814.396484,66.210236 
	C828.300110,66.210236 843.382751,66.210236 858.700317,66.210236 
	C859.542603,72.396568 860.381958,78.561638 861.385132,85.929611 
	C857.018372,80.776558 854.198730,75.702438 849.901123,72.874542 
	C845.698547,70.109253 839.988831,69.634682 834.341431,67.978889 
	C834.341431,77.269730 834.341431,85.476189 834.341431,93.869987 
	C842.899475,94.805504 847.939880,90.443886 851.541138,83.075882 
	C851.541138,91.309517 851.541138,99.543152 851.541138,107.776787 
	C848.172668,100.338684 842.445129,96.869614 834.208862,97.161400 
	C834.208862,105.454956 834.208862,113.548508 834.208862,123.135498 
	C840.267883,121.641777 846.486511,121.415192 851.126404,118.593018 
	C855.657288,115.837059 858.576294,110.430847 862.818054,105.468384 
	C862.059753,112.223312 861.376099,118.312782 860.657715,124.712479 
	C844.970520,124.712479 829.095581,124.712479 812.604248,124.712479 
	C817.572998,117.298889 815.624390,109.258141 816.000000,100.997826 
z"/>
<path fill="#FFFFFF" opacity="1.000000" stroke="none" 
	d="
M691.998535,107.986557 
	C694.824768,113.902199 697.613770,119.422073 700.312622,124.763397 
	C691.354004,124.763397 682.269287,124.763397 674.561218,124.763397 
	C674.295227,119.774590 674.288818,115.101845 673.701599,110.503265 
	C673.394287,108.097351 671.692200,106.692856 668.759155,106.926170 
	C664.955261,107.228737 661.103027,106.871216 657.283508,107.050896 
	C655.173523,107.150162 651.555115,107.293610 651.264771,108.234337 
	C650.182129,111.742599 649.907227,115.590157 649.923645,119.307800 
	C649.931335,121.047752 651.295166,122.781754 652.250916,124.997269 
	C647.479919,124.997269 643.192566,125.003059 638.905212,124.990463 
	C638.322510,124.988754 637.740112,124.895027 636.847412,124.816689 
	C649.065125,108.292473 653.406860,88.808937 661.026123,70.782524 
	C662.351440,67.647095 663.810486,65.111038 668.043579,65.917480 
	C670.442627,66.374527 673.000061,66.000000 675.408264,66.000000 
	C680.980103,79.999535 686.470764,93.795158 691.998535,107.986557 
M663.650024,84.119553 
	C662.970764,83.115768 662.291504,82.111977 661.408386,80.806992 
	C658.488708,88.339149 655.730591,95.454475 652.868591,102.837807 
	C659.004822,102.837807 664.760864,102.837807 670.493774,102.837807 
	C668.317871,96.827393 666.146729,90.830063 663.650024,84.119553 
z"/>
<path fill="#2754A7" opacity="1.000000" stroke="none" 
	d="
M139.413925,194.819687 
	C136.184494,194.757126 134.160995,200.543076 130.341812,195.763123 
	C131.192139,192.187759 132.090134,189.033432 133.525909,186.146561 
	C138.211777,176.724777 143.093796,167.400543 148.296661,158.026794 
	C150.337616,158.610275 152.042053,159.079346 153.616241,159.823853 
	C159.292953,162.508728 164.801025,165.797958 171.835358,164.662735 
	C171.074692,162.807663 170.533142,161.486969 170.371628,160.102859 
	C188.791687,166.853836 207.296982,171.532410 226.453247,173.222916 
	C226.594208,172.809937 226.735153,172.396942 226.876099,171.983963 
	C221.241776,167.359955 215.607468,162.735931 210.020782,157.776657 
	C212.472046,157.679535 214.875656,157.917664 218.038773,158.231049 
	C218.038773,156.959351 218.038773,155.420700 218.038773,153.882065 
	C223.558487,157.968277 229.057877,162.082352 234.605423,166.130447 
	C238.044846,168.640213 241.390625,171.349060 245.089600,173.410095 
	C248.072083,175.071930 248.420975,177.045425 247.614731,179.944382 
	C246.796539,182.886414 245.358826,184.358505 242.006607,184.010590 
	C224.548157,182.198822 206.986313,180.799591 190.071594,175.888672 
	C178.330429,172.479797 166.916183,167.944885 154.283844,163.539169 
	C149.637482,173.443741 144.674301,184.023636 139.413925,194.819687 
z"/>
<path fill="#395EB8" opacity="1.000000" stroke="none" 
	d="
M158.027954,82.359215 
	C165.299484,79.552826 172.419159,76.221786 179.878082,74.062744 
	C191.129349,70.805969 202.547394,68.019951 214.029831,65.704720 
	C221.554108,64.187584 229.314484,63.829838 236.974716,63.004768 
	C239.719955,62.709080 242.481613,62.565685 245.339615,62.344757 
	C249.523056,69.214867 249.068848,69.742676 243.092697,74.517349 
	C229.218689,85.602127 215.660263,97.081772 201.962708,108.387802 
	C201.086044,109.111412 200.113846,109.719284 198.641754,110.694962 
	C194.723846,111.710312 190.678589,115.303802 189.106720,108.579681 
	C191.703873,105.769669 194.017349,103.114693 196.625107,100.789825 
	C207.050720,91.495102 217.567764,82.302956 228.038788,73.083603 
	C205.780884,75.385933 184.123108,80.891388 162.751465,89.000496 
	C160.941589,86.757042 159.484772,84.558128 158.027954,82.359215 
z"/>
<path fill="#FFFFFF" opacity="1.000000" stroke="none" 
	d="
M402.798645,70.696167 
	C394.174194,79.474403 389.166321,90.309975 385.577759,101.111290 
	C383.264984,108.072548 385.988220,116.706947 386.464294,124.758690 
	C379.935059,124.758690 372.074066,124.758690 364.228943,124.758690 
	C368.242065,114.793533 368.875793,105.039246 363.818695,95.518997 
	C358.551361,85.602997 352.978790,75.849159 347.705627,66.324203 
	C355.860718,66.324203 365.327698,66.324203 374.839661,66.324203 
	C370.418274,78.237595 379.757721,86.065872 383.731598,95.824913 
	C385.164764,92.445869 386.617859,89.075119 388.025482,85.685463 
	C389.434906,82.291367 391.297607,78.980469 392.022034,75.440804 
	C392.582520,72.702164 391.693054,69.666779 391.417145,66.395645 
	C395.921265,66.395645 400.770081,66.395645 406.598816,66.395645 
	C405.214752,67.966827 404.132477,69.195366 402.798645,70.696167 
z"/>
<path fill="#FFFFFF" opacity="1.000000" stroke="none" 
	d="
M781.000000,94.000198 
	C781.000000,103.473495 781.000000,112.446838 781.000000,121.674660 
	C787.222839,122.761314 793.086792,121.665665 797.562988,117.867973 
	C801.764282,114.303589 804.803955,109.370140 808.739136,104.570259 
	C808.112671,111.057350 807.669800,116.971024 806.835144,122.828896 
	C806.712769,123.688248 804.734863,124.895256 803.605408,124.906258 
	C789.148621,125.047028 774.689941,124.999161 761.085938,124.999161 
	C764.006287,105.273254 764.101135,85.887650 761.085083,66.252380 
	C768.055847,66.252380 775.918518,66.252380 784.299316,66.252380 
	C778.966309,75.051414 781.655212,84.447678 781.000000,94.000198 
z"/>
<path fill="#FFFFFF" opacity="1.000000" stroke="none" 
	d="
M733.999390,125.000000 
	C724.514954,125.000000 715.530334,125.000000 707.196716,125.000000 
	C711.645569,105.343445 711.364685,85.776398 707.280396,66.150696 
	C714.565857,66.150696 722.651428,66.150696 730.542664,66.150696 
	C724.160400,84.320168 728.321777,103.027710 726.737549,121.621735 
	C740.697571,123.597702 748.967773,116.830078 754.145630,104.755127 
	C754.537292,105.014969 754.928955,105.274818 755.320618,105.534660 
	C754.624817,111.889374 753.929016,118.244080 753.189270,125.000000 
	C746.754639,125.000000 740.626953,125.000000 733.999390,125.000000 
z"/>
<path fill="#FFFFFF" opacity="1.000000" stroke="none" 
	d="
M515.009155,74.524216 
	C515.000732,85.964928 514.801208,96.957504 515.083374,107.937706 
	C515.226318,113.501984 516.238892,119.043922 516.876404,124.758240 
	C509.936737,124.758240 502.075867,124.758240 495.278442,124.758240 
	C497.983521,105.186745 497.981232,85.812737 495.280426,66.241936 
	C502.076233,66.241936 509.937286,66.241936 518.092957,66.241936 
	C516.987854,69.054871 516.002563,71.562927 515.009155,74.524216 
z"/>
<path fill="#345BB3" opacity="1.000000" stroke="none" 
	d="
M157.728882,82.436340 
	C159.484772,84.558128 160.941589,86.757042 162.608765,89.290100 
	C162.815857,90.907120 162.283386,92.574539 162.892319,93.412582 
	C168.156998,100.657982 173.627136,107.754097 178.997375,115.243500 
	C177.293243,117.762703 175.627808,119.933105 173.648499,121.964142 
	C167.160934,113.706825 161.086395,105.508827 154.683884,97.575539 
	C153.911606,96.618629 150.713638,96.267990 149.742386,97.034065 
	C140.938309,103.978271 132.289856,111.165230 129.434250,123.067841 
	C128.456909,124.042717 127.579491,124.851685 127.225708,125.846817 
	C125.386017,131.021561 123.523216,131.761505 119.008163,128.687027 
	C119.190323,128.248627 119.290054,128.085266 119.535934,127.817604 
	C119.852158,127.533096 119.957199,127.320694 120.005051,126.697433 
	C120.333084,124.882309 120.653275,123.445862 121.327515,121.952179 
	C122.514923,120.220306 123.348305,118.545662 124.181686,116.871017 
	C123.626167,116.580521 123.070656,116.290016 122.515137,115.999519 
	C121.661453,117.376045 120.807777,118.752571 119.637253,119.955505 
	C116.171898,112.474037 111.774483,106.174904 105.155487,101.514877 
	C102.919945,99.940979 101.046043,97.853416 99.006866,96.000610 
	C101.398140,95.852539 103.819283,95.878304 106.166725,95.475044 
	C107.175613,95.301735 108.031548,94.238075 109.302917,93.377045 
	C114.879585,98.690300 120.110291,104.205437 125.425705,109.809898 
	C130.730148,100.146049 138.935272,93.130989 148.358459,87.023323 
	C151.740448,89.470642 154.777512,91.881378 157.814590,94.292114 
	C158.223572,93.928406 158.632568,93.564705 159.041565,93.200996 
	C157.709793,89.762306 156.378006,86.323616 155.046219,82.884926 
	C155.840744,82.761108 156.635284,82.637283 157.728882,82.436340 
z"/>
<path fill="#2F58AE" opacity="1.000000" stroke="none" 
	d="
M173.962372,122.103516 
	C175.627808,119.933105 177.293243,117.762703 179.287613,115.368729 
	C182.730453,113.058929 185.844360,110.972687 188.958267,108.886444 
	C190.678589,115.303802 194.723846,111.710312 198.465668,110.997208 
	C194.368576,114.438599 189.903244,117.891708 185.437912,121.344818 
	C185.864853,122.213165 186.291794,123.081512 186.718735,123.949852 
	C196.298294,132.922211 205.881058,141.891159 215.451645,150.873062 
	C216.258469,151.630249 216.983765,152.474335 217.892853,153.580048 
	C218.038773,155.420700 218.038773,156.959351 218.038773,158.231049 
	C214.875656,157.917664 212.472046,157.679535 209.717194,157.617371 
	C200.841553,149.609695 192.192825,141.549591 183.865723,133.169891 
	C181.242355,130.529953 179.292328,130.912628 177.392319,133.292740 
	C172.199677,139.797516 167.192856,146.450638 161.721802,153.031433 
	C157.781479,153.109924 155.785461,151.256516 155.100357,147.623779 
	C157.397476,144.472946 159.588623,141.653687 161.712036,138.784271 
	C165.815659,133.238983 169.881104,127.665390 173.962372,122.103516 
z"/>
<path fill="#FFFFFF" opacity="1.000000" stroke="none" 
	d="
M640.156128,165.000107 
	C642.593018,165.000000 644.571899,165.000000 647.636597,165.000000 
	C641.427856,172.672501 644.672424,180.729431 644.277893,188.782654 
	C641.184937,189.837158 638.704102,188.964386 636.783264,185.417099 
	C634.690857,181.552902 631.990479,178.017868 628.820496,173.229614 
	C629.738464,179.271835 626.214478,185.069412 634.131287,187.894867 
	C633.729797,188.261124 633.328308,188.627396 632.926819,188.993652 
	C629.764343,188.993652 626.594421,189.101471 623.447144,188.882812 
	C622.948486,188.848145 622.552124,187.341675 622.108398,186.515701 
	C627.545898,185.258575 624.051453,180.924057 624.971375,178.111908 
	C625.167908,177.511154 625.085510,176.778046 624.985718,176.128342 
	C624.450195,172.642197 623.868469,169.163162 623.217590,165.157745 
	C626.804443,164.342270 630.916321,164.277939 633.379761,169.781494 
	C634.931213,173.247559 637.143616,176.417709 639.991882,179.623520 
	C639.991882,176.298401 640.050903,172.971207 639.934387,169.650177 
	C639.914734,169.090302 639.127258,168.564651 638.712769,168.009583 
	C638.153137,167.260025 637.611145,166.497284 637.061584,165.740204 
	C637.940430,165.493546 638.819275,165.246872 640.156128,165.000107 
z"/>
<path fill="#FFFFFF" opacity="1.000000" stroke="none" 
	d="
M556.414124,187.883667 
	C553.308105,183.195343 550.500671,178.772079 547.693237,174.348816 
	C547.640320,179.257614 544.631042,184.831802 550.954895,188.969833 
	C547.664368,188.969833 544.369751,189.046143 541.088989,188.866974 
	C540.706848,188.846100 540.401794,187.412170 540.061035,186.633347 
	C545.690857,184.724197 542.640564,180.058472 542.812378,176.745560 
	C543.006958,172.995987 541.761963,169.171722 541.115967,165.214600 
	C542.987183,165.214600 545.771179,165.214600 548.463745,165.214600 
	C551.335693,170.049576 554.194336,174.862076 557.594238,180.585739 
	C558.086243,174.646881 559.364014,169.648834 554.370789,165.203293 
	C558.325073,165.203293 561.436951,165.203293 565.462646,165.203293 
	C559.444763,172.674713 562.644348,180.736115 562.290527,189.159454 
	C560.675659,188.866821 558.694214,188.507767 556.414124,187.883667 
z"/>
<path fill="#FFFFFF" opacity="1.000000" stroke="none" 
	d="
M681.055542,165.878998 
	C685.672791,164.438339 689.519836,164.207184 691.652466,169.943634 
	C693.070740,173.758377 696.031494,176.999664 698.301819,180.497635 
	C698.746582,180.423737 699.191406,180.349838 699.636169,180.275940 
	C698.657410,175.210266 697.678589,170.144592 696.717834,165.172058 
	C698.876831,165.172058 702.274231,165.172058 705.634338,165.172058 
	C705.784668,165.624176 706.039612,166.094437 705.952148,166.170395 
	C700.541748,170.868622 703.839111,177.120224 703.044800,182.625320 
	C702.764648,184.567169 703.000000,186.583420 703.000000,189.154175 
	C693.546387,189.015564 693.893311,179.107315 687.105896,174.523468 
	C688.295654,180.008377 689.234802,184.337631 690.142456,188.522141 
	C687.660706,188.522141 684.462952,188.522141 681.026123,188.522141 
	C684.952759,181.113052 686.210388,173.676376 681.055542,165.878998 
z"/>
<path fill="#3B5FBA" opacity="1.000000" stroke="none" 
	d="
M155.005615,82.527771 
	C156.378006,86.323616 157.709793,89.762306 159.041565,93.200996 
	C158.632568,93.564705 158.223572,93.928406 157.814590,94.292114 
	C154.777512,91.881378 151.740448,89.470642 148.244751,86.695160 
	C142.584503,75.882233 137.382919,65.434044 132.181320,54.985859 
	C134.904373,55.343937 137.627426,55.702015 140.728058,56.015434 
	C145.725449,64.704056 150.345230,73.437340 155.005615,82.527771 
z"/>
<path fill="#FFFFFF" opacity="1.000000" stroke="none" 
	d="
M293.558838,188.780029 
	C290.198212,189.101837 288.317657,189.028152 291.527222,185.674698 
	C294.356659,182.718430 293.401245,171.280334 290.587433,167.901199 
	C290.130554,167.352509 290.122192,166.430344 289.800476,165.312378 
	C293.311096,165.312378 296.530121,165.312378 300.120148,165.312378 
	C298.886200,168.067978 297.712708,170.688446 296.316528,173.806244 
	C300.117371,173.806244 302.887909,173.806244 306.621643,173.806244 
	C305.711334,170.834457 304.938019,168.309814 304.054565,165.425644 
	C307.187225,165.425644 310.355103,165.425644 313.953033,165.425644 
	C309.494110,173.040176 309.407593,180.758118 314.041656,188.522644 
	C310.763672,188.522644 307.576508,188.522644 304.397675,188.522644 
	C305.066040,185.345993 305.771179,181.994553 306.560089,178.245056 
	C302.995514,178.245056 300.243103,178.245056 296.236633,178.245056 
	C297.434326,181.852676 298.499695,185.061661 299.671021,188.589874 
	C297.955292,188.589874 295.944366,188.589874 293.558838,188.780029 
z"/>
<path fill="#FFFFFF" opacity="1.000000" stroke="none" 
	d="
M468.195251,180.511841 
	C468.982819,183.381638 469.940308,185.889908 470.945282,188.522537 
	C467.782318,188.522537 464.605713,188.522537 460.957245,188.522537 
	C465.462982,180.885956 465.556580,173.107666 460.574188,165.000565 
	C464.643036,165.000565 468.199310,164.514877 471.539093,165.156433 
	C474.143677,165.656754 477.722443,166.980011 478.648407,168.970322 
	C480.109406,172.110840 479.211029,175.932739 475.581512,178.133545 
	C475.346954,178.275757 475.229553,178.611237 474.587738,179.528244 
	C477.789185,182.378448 481.037109,185.270065 484.661377,188.496704 
	C478.494781,189.873886 474.519684,188.485977 471.904175,183.503098 
	C471.189453,182.141449 469.569611,181.254898 468.195251,180.511841 
M472.993164,174.504700 
	C474.932953,169.374588 474.215790,168.621063 468.181824,169.520782 
	C468.181824,171.597229 468.181824,173.680695 468.181824,176.308701 
	C469.787567,175.837540 471.084045,175.457108 472.993164,174.504700 
z"/>
<path fill="#FFFFFF" opacity="1.000000" stroke="none" 
	d="
M447.034119,188.468475 
	C437.324982,189.441406 434.045258,187.148544 434.000824,179.851639 
	C433.994781,178.853973 434.126312,177.836975 433.977661,176.861938 
	C433.393402,173.029144 432.722626,169.209564 432.059143,165.236679 
	C434.663361,165.236679 438.228912,165.236679 442.800751,165.236679 
	C436.786987,169.647720 439.337555,175.331909 439.209290,180.369980 
	C439.170837,181.879745 441.908600,184.883286 442.882111,184.692322 
	C444.768494,184.322296 447.392029,182.406815 447.760284,180.708878 
	C448.518158,177.214432 448.299622,173.402832 447.842438,169.803085 
	C447.664154,168.399277 445.760345,167.214630 444.049316,165.248550 
	C448.425446,165.248550 451.672241,165.248550 454.378845,165.248550 
	C453.578033,170.977798 453.162842,176.605225 451.858612,182.018448 
	C451.308899,184.300064 448.883759,186.129822 447.034119,188.468475 
z"/>
<path fill="#FFFFFF" opacity="1.000000" stroke="none" 
	d="
M395.487122,187.817413 
	C392.152527,187.998734 389.165161,188.314178 386.254822,187.972855 
	C382.399811,187.520721 380.663025,185.018448 380.985321,181.107590 
	C381.080566,179.951721 381.130249,178.763840 380.976471,177.620804 
	C380.439087,173.626282 379.803558,169.644974 379.160309,165.358353 
	C381.258118,165.358353 384.444855,165.358353 388.035278,165.358353 
	C387.101654,167.728241 385.582916,169.982437 385.440918,172.320267 
	C385.229492,175.801498 385.706482,179.409103 386.514893,182.814728 
	C386.749023,183.801132 389.608917,185.219589 390.411743,184.801498 
	C392.222351,183.858551 394.425354,182.083817 394.794800,180.300690 
	C395.488403,176.953003 395.319550,173.315094 394.845795,169.889648 
	C394.644287,168.432358 392.772949,167.206009 391.126862,165.236115 
	C395.356293,165.236115 398.611664,165.236115 402.915375,165.236115 
	C396.899292,170.544754 399.776794,176.973190 398.869904,182.779602 
	C398.598083,184.519958 396.908661,186.038879 395.487122,187.817413 
z"/>
<path fill="#FFFFFF" opacity="1.000000" stroke="none" 
	d="
M488.220734,186.018005 
	C489.114166,182.134857 489.910339,178.273041 489.883789,174.416885 
	C489.863953,171.540192 488.781006,168.670822 488.104309,165.481445 
	C492.507050,165.481445 497.956238,165.481445 503.706390,165.481445 
	C503.706390,167.064117 503.706390,168.937683 503.706390,170.554779 
	C501.009766,169.897293 498.306152,169.238113 495.217224,168.484985 
	C495.217224,171.044281 495.217224,172.808548 495.217224,174.980942 
	C497.341919,174.227295 499.342041,173.517853 501.729340,172.671082 
	C501.729340,175.328400 501.729340,177.549149 501.729340,180.178574 
	C499.541901,179.291611 497.615631,178.510544 495.199615,177.530884 
	C495.199615,180.352570 495.199615,182.451263 495.199615,185.786926 
	C498.652039,184.575790 501.643005,183.526535 504.513184,182.519653 
	C505.690704,189.152679 505.172760,189.498383 498.319183,188.232864 
	C496.050049,187.813858 493.530304,188.966415 491.148987,188.861038 
	C489.702667,188.797028 485.557648,190.867401 488.220734,186.018005 
z"/>
<path fill="#FFFFFF" opacity="1.000000" stroke="none" 
	d="
M668.279541,172.694550 
	C670.811279,178.219177 673.099731,183.422775 675.342285,188.522156 
	C672.770203,188.522156 669.587524,188.522156 667.521729,188.522156 
	C666.755432,185.595993 666.188843,182.785904 665.122437,180.180374 
	C664.989563,179.855667 661.144958,180.204208 660.857483,180.949432 
	C660.039856,183.069244 660.172546,185.555634 659.866943,188.521652 
	C657.712219,188.521652 654.444031,188.521652 651.106262,188.521652 
	C651.079834,188.082962 650.843689,187.311981 651.052002,187.163132 
	C657.468750,182.578033 657.134277,174.472336 660.859985,168.509644 
	C661.803711,166.999222 663.111633,165.716324 664.911011,163.527481 
	C666.277222,167.394623 667.156677,169.884064 668.279541,172.694550 
z"/>
<path fill="#FFFFFF" opacity="1.000000" stroke="none" 
	d="
M333.979279,188.998047 
	C330.337158,188.834167 327.137299,188.688812 323.939941,188.501221 
	C322.639130,188.424881 321.343689,188.256821 320.045807,188.130524 
	C320.803528,187.390213 321.722443,186.751022 322.269623,185.878662 
	C322.735321,185.136230 322.918549,184.133469 322.969238,183.231384 
	C323.071869,181.406479 323.053986,179.569839 322.989136,177.741470 
	C322.837311,173.458221 324.278503,168.803589 318.656830,165.200409 
	C325.641815,165.200409 331.077789,165.200409 336.747192,165.200409 
	C336.747192,167.168365 336.747192,169.048431 336.747192,170.977417 
	C333.977051,170.087143 331.440918,169.272079 328.268341,168.252472 
	C328.132263,170.831207 328.040436,172.572006 327.931641,174.633591 
	C330.230652,174.014313 332.282074,173.461731 334.193451,172.946869 
	C334.339264,175.250565 334.471100,177.333282 334.640472,180.008728 
	C332.700470,179.280899 330.694672,178.528412 328.198792,177.592056 
	C328.198792,180.325012 328.198792,182.427567 328.198792,185.901230 
	C331.686584,184.489883 334.628815,183.299286 337.786133,182.021667 
	C337.685272,184.930847 339.419403,188.461334 333.979279,188.998047 
z"/>
<path fill="#FFFFFF" opacity="1.000000" stroke="none" 
	d="
M747.960693,165.000000 
	C750.421570,165.000000 752.399780,165.000000 754.688171,165.000000 
	C754.688171,167.039124 754.688171,168.900803 754.688171,170.801254 
	C751.618164,170.029190 748.615723,169.274124 745.206787,168.416840 
	C745.206787,171.079178 745.206787,172.838425 745.206787,174.996170 
	C747.357788,174.222153 749.360352,173.501587 751.740906,172.644974 
	C751.740906,175.337555 751.740906,177.578186 751.740906,179.862625 
	C749.656189,179.096741 747.658203,178.362747 745.498230,177.569214 
	C744.611877,184.446045 744.611877,184.446045 755.409058,182.232788 
	C755.213318,184.259415 755.022095,186.287674 754.813538,188.499878 
	C749.430969,188.499878 743.914978,188.499878 737.980042,188.499878 
	C742.067932,180.902023 743.018860,173.144791 737.466309,165.000000 
	C741.249268,165.000000 744.363647,165.000000 747.960693,165.000000 
z"/>
<path fill="#FFFFFF" opacity="1.000000" stroke="none" 
	d="
M591.010864,183.571320 
	C592.155701,185.335052 593.291016,186.669189 594.803162,188.446075 
	C590.686279,188.651123 587.434326,188.879715 584.184021,188.859787 
	C583.896362,188.858017 583.618774,187.235168 583.336548,186.365234 
	C587.623901,185.850571 585.554993,182.521622 585.975281,180.319901 
	C586.128784,179.516037 586.023376,178.657547 585.996155,177.825272 
	C585.855225,173.509460 587.301208,168.826019 581.833435,165.215729 
	C588.589294,165.215729 594.032471,165.215729 599.739014,165.215729 
	C599.739014,167.139008 599.739014,169.020416 599.739014,170.962051 
	C596.988037,170.077393 594.439209,169.257706 591.266785,168.237518 
	C591.129944,170.818390 591.037659,172.558838 590.927917,174.629074 
	C593.226624,174.011078 595.277588,173.459671 597.197449,172.943512 
	C597.340515,175.243149 597.470154,177.327805 597.636597,180.003891 
	C595.685974,179.274979 593.655212,178.516144 591.001465,177.524521 
	C591.001465,179.881622 591.001465,181.511688 591.010864,183.571320 
z"/>
<path fill="#FFFFFF" opacity="1.000000" stroke="none" 
	d="
M370.264465,177.655792 
	C369.782684,180.418869 369.802216,180.379440 368.042206,179.319931 
	C366.979919,178.680450 365.822754,178.198608 364.708221,177.645935 
	C364.250000,177.945663 363.791779,178.245392 363.333557,178.545120 
	C364.430878,181.900848 365.528229,185.256592 366.591553,188.508331 
	C363.871338,188.658066 360.800690,188.866760 357.726532,188.959656 
	C357.174438,188.976349 356.338226,188.655746 356.120605,188.237335 
	C355.881775,187.778122 356.112213,186.510925 356.300262,186.476303 
	C360.660583,185.673569 358.525665,182.246887 358.969696,179.915466 
	C359.152679,178.954636 359.123627,177.911407 358.978180,176.937454 
	C358.406189,173.107422 357.749603,169.290039 357.094116,165.282745 
	C361.620544,165.282745 367.157196,165.282745 372.824799,165.282745 
	C372.824799,167.169861 372.824799,168.926224 372.824799,170.885544 
	C370.006866,170.061371 367.366180,169.289032 364.251526,168.378052 
	C364.251526,170.979507 364.251526,172.732330 364.251526,174.554001 
	C366.257263,174.025513 368.335785,173.477844 370.518311,172.902771 
	C370.333344,174.608536 370.186523,175.962479 370.264465,177.655792 
z"/>
<path fill="#FFFFFF" opacity="1.000000" stroke="none" 
	d="
M724.777954,169.000793 
	C718.239624,169.143829 716.312256,171.707932 717.000610,178.789536 
	C717.399963,182.898041 722.282776,185.925400 727.002747,184.973785 
	C728.594299,184.652924 730.176025,184.283264 732.426331,183.790497 
	C729.124573,188.948013 722.313477,190.430008 717.403625,187.803818 
	C712.645508,185.258743 710.386230,177.412689 712.777405,171.737778 
	C715.643066,164.936768 721.342468,163.348679 731.822083,166.431061 
	C730.998169,171.738510 730.998169,171.738510 724.777954,169.000793 
z"/>
<path fill="#FFFFFF" opacity="1.000000" stroke="none" 
	d="
M271.785675,185.448853 
	C271.972900,179.885925 271.972900,174.738266 271.972900,168.602234 
	C269.597748,169.368500 267.647003,169.997833 265.230652,170.777390 
	C265.148987,169.107132 265.059753,167.281479 264.948273,165.001709 
	C270.838135,165.001709 276.466949,164.857925 282.083374,165.058945 
	C285.152222,165.168762 285.350861,165.958389 284.418915,170.952362 
	C282.210724,170.148392 279.995453,169.341858 277.000977,168.251633 
	C277.000977,173.666229 276.853790,178.277512 277.109558,182.866302 
	C277.169800,183.947220 278.574463,184.963486 279.387329,185.988327 
	C279.890839,186.623169 280.444611,187.218109 280.975830,187.830963 
	C280.226074,188.220322 279.491882,188.904984 278.723785,188.945419 
	C276.087311,189.084167 273.435730,189.067322 270.797699,188.943558 
	C270.191711,188.915131 269.616852,188.223694 269.027649,187.837372 
	C269.884583,187.179626 270.741516,186.521881 271.785675,185.448853 
z"/>
<path fill="#FFFFFF" opacity="1.000000" stroke="none" 
	d="
M419.817932,169.081833 
	C419.297302,175.696640 416.899078,182.550476 422.462769,188.502502 
	C418.430450,188.502502 414.902863,188.502502 412.244446,188.502502 
	C413.036560,182.401245 413.864899,176.021149 414.873260,168.254333 
	C411.561890,169.367645 409.611023,170.023529 407.375000,170.775299 
	C407.375000,169.084229 407.375000,167.255966 407.375000,165.205505 
	C413.328186,165.205505 419.410675,165.205505 425.747498,165.205505 
	C425.747498,167.107773 425.747498,168.963959 425.747498,170.894760 
	C423.781738,170.220535 422.019592,169.616135 419.817932,169.081833 
z"/>
<path fill="#FFFFFF" opacity="1.000000" stroke="none" 
	d="
M526.681091,188.986176 
	C525.177368,188.601776 524.101440,188.205368 523.025452,187.808960 
	C523.727051,187.184280 524.520142,186.633102 525.100525,185.911026 
	C525.540344,185.363815 525.949280,184.602539 525.959900,183.930023 
	C526.033325,179.285400 526.241638,174.618927 525.859497,170.004822 
	C525.734863,168.499847 523.980225,167.129898 522.672302,165.274414 
	C526.709656,165.274414 530.242737,165.274414 533.883179,165.274414 
	C529.464722,173.112350 529.477295,180.811783 534.229187,188.974182 
	C531.586731,188.974182 529.347778,188.974182 526.681091,188.986176 
z"/>
<path fill="#FFFFFF" opacity="1.000000" stroke="none" 
	d="
M607.850830,168.657104 
	C606.738464,167.574020 605.756226,166.915726 604.773987,166.257431 
	C604.885315,165.962128 604.996643,165.666809 605.107971,165.371506 
	C608.600220,165.371506 612.092529,165.371506 615.728821,165.371506 
	C611.462158,173.047455 611.455688,180.729691 616.331909,188.983917 
	C612.767334,188.983917 609.548645,189.077499 606.349060,188.872498 
	C605.920471,188.845032 605.588562,187.308685 605.211914,186.471069 
	C610.038696,185.453064 607.642151,181.637024 607.915710,179.024994 
	C608.259338,175.744324 607.987366,172.399200 607.850830,168.657104 
z"/>
<path fill="#204F9F" opacity="1.000000" stroke="none" 
	d="
M111.355141,197.259506 
	C111.577339,197.177109 111.757309,197.357040 111.938858,197.780029 
	C111.726318,197.876999 111.517143,197.709915 111.355141,197.259506 
z"/>
<path fill="#3C60BB" opacity="1.000000" stroke="none" 
	d="
M109.638733,50.084953 
	C110.493134,54.106918 113.804138,52.711346 116.652481,53.420296 
	C116.910049,54.792786 117.035225,55.879829 116.632362,56.710915 
	C112.052963,66.158020 107.392891,75.566017 102.388107,84.986816 
	C99.669312,83.987946 97.316795,82.986740 94.964279,81.985527 
	C96.645493,78.299995 98.336403,74.618835 100.005852,70.927971 
	C103.118027,64.047470 106.217712,57.161320 109.638733,50.084953 
z"/>
<path fill="#345BB3" opacity="1.000000" stroke="none" 
	d="
M94.742058,82.083603 
	C97.316795,82.986740 99.669312,83.987946 102.365967,85.271133 
	C102.409355,86.035858 102.108612,86.518608 101.807877,87.001366 
	C98.204094,88.275703 95.887642,86.553459 94.029892,83.326172 
	C94.065552,82.643257 94.241371,82.378395 94.742058,82.083603 
z"/>
<path fill="#2D57AD" opacity="1.000000" stroke="none" 
	d="
M96.036369,150.890656 
	C97.120300,153.186829 98.256119,155.460358 99.271194,157.786575 
	C100.036667,159.540787 100.647568,161.362442 101.327271,163.154068 
	C100.744102,163.590607 100.160934,164.027130 99.577774,164.463669 
	C95.891647,161.066025 92.205528,157.668365 87.912842,153.974518 
	C82.067047,146.564209 76.906754,139.388077 71.450874,132.444168 
	C70.972565,131.835403 68.067810,132.197906 67.114395,133.041199 
	C56.685120,142.265991 46.419987,151.676331 36.110245,161.036240 
	C32.288391,162.214890 28.466537,163.393555 24.116476,164.735123 
	C24.449030,162.796097 24.714251,161.249695 24.976551,159.317657 
	C25.620602,158.456116 26.267570,157.980179 27.246790,157.118042 
	C27.795090,156.529465 27.923990,156.281723 27.965742,155.988632 
	C27.965742,155.988632 27.992182,155.992081 28.191586,155.914001 
	C28.651436,155.696274 28.844774,155.492844 28.971003,155.225616 
	C39.432598,145.877502 49.894192,136.529373 60.677284,127.418701 
	C63.122768,131.538422 64.920250,131.827301 68.537605,128.938232 
	C71.038528,126.940834 73.585915,125.001602 76.077988,123.385689 
	C76.805946,124.771576 77.568054,125.808449 78.331009,126.844681 
	C84.232704,134.860077 90.134567,142.875351 96.036369,150.890656 
z"/>
<path fill="#345BB3" opacity="1.000000" stroke="none" 
	d="
M76.112534,123.036377 
	C73.585915,125.001602 71.038528,126.940834 68.537605,128.938232 
	C64.920250,131.827301 63.122768,131.538422 60.982246,127.275894 
	C61.636147,125.821388 62.306576,124.747139 62.998283,123.330605 
	C63.019558,122.988327 63.063362,122.959496 63.355377,123.104691 
	C68.318230,123.674210 69.026054,120.168533 70.105392,116.583305 
	C75.101669,109.806038 80.050316,103.401764 84.740479,96.813484 
	C86.158745,94.821243 86.860809,92.319160 87.890938,90.050613 
	C91.769859,90.214363 95.594536,90.475746 96.635208,95.541382 
	C89.556602,104.996254 82.834572,114.016319 76.112534,123.036377 
z"/>
<path fill="#345CB3" opacity="1.000000" stroke="none" 
	d="
M35.060791,96.337112 
	C37.640507,95.010223 40.371170,93.984436 43.726372,92.947144 
	C50.687378,98.912277 57.071812,104.839439 63.324860,110.902115 
	C64.793900,112.326431 65.819183,114.208435 67.031181,116.255325 
	C65.696945,118.740341 64.380150,120.849922 63.063362,122.959496 
	C63.063362,122.959496 63.019558,122.988327 62.998245,123.003677 
	C53.721867,114.225418 44.466801,105.431816 35.060791,96.337112 
z"/>
<path fill="#2753A7" opacity="1.000000" stroke="none" 
	d="
M27.747604,156.069489 
	C27.923990,156.281723 27.795090,156.529465 27.400076,156.846161 
	C27.114748,156.610794 27.217533,156.340759 27.747604,156.069489 
z"/>
<path fill="#2753A7" opacity="1.000000" stroke="none" 
	d="
M28.728966,155.202148 
	C28.844774,155.492844 28.651436,155.696274 28.187885,155.901169 
	C28.000435,155.607086 28.167818,155.344513 28.728966,155.202148 
z"/>
<path fill="#000000" opacity="1.000000" stroke="none" 
	d="
M147.900375,158.038773 
	C143.093796,167.400543 138.211777,176.724777 133.525909,186.146561 
	C132.090134,189.033432 131.192139,192.187759 130.036072,195.604980 
	C128.429062,200.546631 126.833878,205.102905 124.736565,211.093353 
	C123.190430,205.803223 121.962219,201.600876 120.426529,197.180206 
	C114.756882,185.684326 109.320053,174.440933 104.120438,163.088913 
	C103.415047,161.548859 103.898247,159.464401 104.316132,157.290802 
	C113.335587,151.698517 120.330505,144.884125 125.378517,135.816589 
	C127.537636,138.659683 129.028931,141.300644 131.142899,143.274796 
	C136.581543,148.353714 142.296082,153.137222 147.900375,158.038773 
z"/>
<path fill="#000000" opacity="1.000000" stroke="none" 
	d="
M76.077988,123.385696 
	C82.834572,114.016319 89.556602,104.996254 96.643829,95.908188 
	C97.451103,95.892731 97.893188,95.945274 98.671066,95.999222 
	C101.046043,97.853416 102.919945,99.940979 105.155487,101.514877 
	C111.774483,106.174904 116.171898,112.474037 119.672043,120.246063 
	C120.340279,121.143272 120.656876,121.576340 120.973465,122.009407 
	C120.653275,123.445862 120.333084,124.882309 119.837723,126.786545 
	C119.430580,127.419220 119.339653,127.641747 119.389778,127.921898 
	C119.290054,128.085266 119.190323,128.248627 118.713120,128.878098 
	C117.804581,130.515808 117.546043,131.956085 116.698532,132.815735 
	C110.873978,138.723862 104.926216,144.510513 99.018112,150.336273 
	C98.229820,150.546097 97.441528,150.755920 96.344803,150.928192 
	C90.134567,142.875351 84.232704,134.860077 78.331009,126.844681 
	C77.568054,125.808449 76.805946,124.771576 76.077988,123.385696 
z"/>
<path fill="#000000" opacity="1.000000" stroke="none" 
	d="
M35.959854,161.345139 
	C46.419987,151.676331 56.685120,142.265991 67.114395,133.041199 
	C68.067810,132.197906 70.972565,131.835403 71.450874,132.444168 
	C76.906754,139.388077 82.067047,146.564209 87.597137,153.855530 
	C85.075661,155.968155 82.516769,158.683884 79.404175,159.694885 
	C69.464989,162.923172 59.406952,165.895416 49.227131,168.237839 
	C41.266911,170.069504 33.057209,170.816971 24.375822,171.889954 
	C23.793285,171.733734 23.461775,171.367889 23.461777,171.367889 
	C27.577675,168.129944 31.693571,164.891998 35.959854,161.345139 
z"/>
<path fill="#2D56AC" opacity="1.000000" stroke="none" 
	d="
M99.022522,150.681152 
	C104.926216,144.510513 110.873978,138.723862 116.698532,132.815735 
	C117.546043,131.956085 117.804581,130.515808 118.630692,129.153122 
	C123.523216,131.761505 125.386017,131.021561 127.225708,125.846817 
	C127.579491,124.851685 128.456909,124.042717 129.516159,123.439545 
	C134.396957,135.523651 142.402298,144.309540 153.019531,151.280197 
	C156.063232,153.082413 159.064987,154.522064 162.383682,156.099762 
	C165.130951,157.547302 167.561279,158.856781 169.991608,160.166260 
	C170.533142,161.486969 171.074692,162.807663 171.835358,164.662735 
	C164.801025,165.797958 159.292953,162.508728 153.616241,159.823853 
	C152.042053,159.079346 150.337616,158.610275 148.296661,158.026794 
	C142.296082,153.137222 136.581543,148.353714 131.142899,143.274796 
	C129.028931,141.300644 127.537636,138.659683 125.378517,135.816589 
	C120.330505,144.884125 113.335587,151.698517 104.457054,156.997620 
	C102.417610,155.039124 100.722282,153.032562 99.022522,150.681152 
z"/>
<path fill="#000000" opacity="1.000000" stroke="none" 
	d="
M23.946590,171.927216 
	C23.254622,172.421387 22.409349,172.722107 21.564077,173.022812 
	C21.485685,172.816040 21.407291,172.609268 21.328899,172.402496 
	C21.851986,172.118713 22.375071,171.834915 23.179966,171.459503 
	C23.461775,171.367889 23.793285,171.733734 23.946590,171.927216 
z"/>
<path fill="#000000" opacity="1.000000" stroke="none" 
	d="
M101.969971,87.308655 
	C102.108612,86.518608 102.409355,86.035858 102.732239,85.268784 
	C107.392891,75.566017 112.052963,66.158020 116.632362,56.710915 
	C117.035225,55.879829 116.910049,54.792786 117.074356,53.431515 
	C119.612213,45.958523 122.105827,38.878643 124.602371,31.790474 
	C126.974991,39.181587 129.402405,46.743404 132.005585,54.645538 
	C137.382919,65.434044 142.584503,75.882233 147.899826,86.658577 
	C138.935272,93.130989 130.730148,100.146049 125.425705,109.809898 
	C120.110291,104.205437 114.879585,98.690300 109.349846,93.012108 
	C106.744568,91.104683 104.438309,89.360313 101.969971,87.308655 
z"/>
<path fill="#000000" opacity="1.000000" stroke="none" 
	d="
M67.048622,115.879875 
	C65.819183,114.208435 64.793900,112.326431 63.324860,110.902115 
	C57.071812,104.839439 50.687378,98.912277 44.099792,92.756180 
	C43.848679,92.576714 43.572369,92.204552 43.253700,91.861755 
	C42.630348,91.333618 42.325668,91.148285 42.020985,90.962959 
	C34.869781,85.110100 27.718578,79.257233 19.758999,72.742760 
	C43.685410,75.633942 66.138474,79.986046 87.529610,90.010574 
	C86.860809,92.319160 86.158745,94.821243 84.740479,96.813484 
	C80.050316,103.401764 75.101669,109.806038 69.796432,116.522110 
	C68.576637,116.468826 67.812630,116.174347 67.048622,115.879875 
z"/>
<path fill="#345CB3" opacity="1.000000" stroke="none" 
	d="
M42.137917,91.204834 
	C42.325668,91.148285 42.630348,91.333618 43.037834,91.777390 
	C42.845375,91.839455 42.550114,91.643082 42.137917,91.204834 
z"/>
<path fill="#000000" opacity="1.000000" stroke="none" 
	d="
M663.812805,84.476143 
	C666.146729,90.830063 668.317871,96.827393 670.493774,102.837807 
	C664.760864,102.837807 659.004822,102.837807 652.868591,102.837807 
	C655.730591,95.454475 658.488708,88.339149 661.408386,80.806992 
	C662.291504,82.111977 662.970764,83.115768 663.812805,84.476143 
z"/>
<path fill="#000000" opacity="1.000000" stroke="none" 
	d="
M170.371643,160.102859 
	C167.561279,158.856781 165.130951,157.547302 162.347214,155.736115 
	C162.033340,154.504608 162.072876,153.774811 162.112427,153.044998 
	C167.192856,146.450638 172.199677,139.797516 177.392319,133.292740 
	C179.292328,130.912628 181.242355,130.529953 183.865723,133.169891 
	C192.192825,141.549591 200.841553,149.609695 209.669556,157.952637 
	C215.607468,162.735931 221.241776,167.359955 226.876099,171.983963 
	C226.735153,172.396942 226.594208,172.809937 226.453247,173.222916 
	C207.296982,171.532410 188.791687,166.853836 170.371643,160.102859 
z"/>
<path fill="#000000" opacity="1.000000" stroke="none" 
	d="
M189.106720,108.579689 
	C185.844360,110.972687 182.730453,113.058929 179.326294,115.019936 
	C173.627136,107.754097 168.156998,100.657982 162.892319,93.412582 
	C162.283386,92.574539 162.815857,90.907120 162.961823,89.334625 
	C184.123108,80.891388 205.780884,75.385933 228.038788,73.083603 
	C217.567764,82.302956 207.050720,91.495102 196.625107,100.789825 
	C194.017349,103.114693 191.703873,105.769669 189.106720,108.579689 
z"/>
<path fill="#000000" opacity="1.000000" stroke="none" 
	d="
M152.977570,150.917633 
	C142.402298,144.309540 134.396957,135.523651 129.857635,123.359520 
	C132.289856,111.165230 140.938309,103.978271 149.742386,97.034065 
	C150.713638,96.267990 153.911606,96.618629 154.683884,97.575539 
	C161.086395,105.508827 167.160934,113.706825 173.648514,121.964142 
	C169.881104,127.665390 165.815659,133.238983 161.712036,138.784271 
	C159.588623,141.653687 157.397476,144.472946 154.836456,147.780731 
	C153.949860,149.136932 153.463715,150.027283 152.977570,150.917633 
z"/>
<path fill="#2D56AC" opacity="1.000000" stroke="none" 
	d="
M121.327507,121.952179 
	C120.656876,121.576340 120.340279,121.143272 119.988892,120.419655 
	C120.807777,118.752571 121.661453,117.376045 122.515137,115.999519 
	C123.070656,116.290016 123.626167,116.580521 124.181686,116.871017 
	C123.348305,118.545662 122.514923,120.220306 121.327507,121.952179 
z"/>
<path fill="#2D56AC" opacity="1.000000" stroke="none" 
	d="
M119.535934,127.817604 
	C119.339653,127.641747 119.430580,127.419220 119.829887,127.165222 
	C119.957199,127.320694 119.852158,127.533096 119.535934,127.817604 
z"/>
<path fill="#2754A7" opacity="1.000000" stroke="none" 
	d="
M153.019531,151.280197 
	C153.463715,150.027283 153.949860,149.136932 154.699890,148.089630 
	C155.785461,151.256516 157.781479,153.109924 161.721802,153.031433 
	C162.072876,153.774811 162.033340,154.504608 162.030273,155.598068 
	C159.064987,154.522064 156.063232,153.082413 153.019531,151.280197 
z"/>
<path fill="#000000" opacity="1.000000" stroke="none" 
	d="
M472.686829,174.790680 
	C471.084045,175.457108 469.787567,175.837540 468.181824,176.308701 
	C468.181824,173.680695 468.181824,171.597229 468.181824,169.520782 
	C474.215790,168.621063 474.932953,169.374588 472.686829,174.790680 
z"/>
<path fill="#2D57AD" opacity="1.000000" stroke="none" 
	d="
M67.031181,116.255325 
	C67.812630,116.174347 68.576637,116.468826 69.649612,116.824493 
	C69.026054,120.168533 68.318230,123.674210 63.355377,123.104691 
	C64.380150,120.849922 65.696945,118.740341 67.031181,116.255325 
z"/>
</svg>